<svg width="47" height="47" viewBox="0 0 47 47" fill="none" xmlns="http://www.w3.org/2000/svg">
<path d="M31.3333 21.4438V15.5688H25.4583V11.6521H31.3333V5.7771H35.25V11.6521H41.125V15.5688H35.25V21.4438H31.3333ZM39.0688 41.125C34.8583 41.125 30.7543 40.1948 26.7567 38.3344C22.7578 36.474 19.2165 33.9934 16.1328 30.8927C13.0477 27.792 10.5672 24.2422 8.69108 20.2433C6.81369 16.2457 5.875 12.1417 5.875 7.93127V6.90314C5.875 6.54411 5.90764 6.20141 5.97292 5.87502H17.4292L19.2406 15.7156L13.6594 21.3459C15.0302 23.6959 16.7522 25.899 18.8255 27.9552C20.8974 30.0115 23.1736 31.7903 25.6542 33.2917L31.3333 27.6125L41.125 29.5709V41.0271C40.7986 41.0597 40.4559 41.0845 40.0969 41.1015C39.7378 41.1172 39.3951 41.125 39.0688 41.125Z" fill="#363333"/>
</svg>
