<svg width="47" height="47" viewBox="0 0 47 47" fill="none" xmlns="http://www.w3.org/2000/svg">
<g clip-path="url(#clip0_176_96)">
<path d="M42 12.3224V36.0836C42 37.6279 40.902 38.8784 39.546 38.8784H33.8175V23.0387L24 31.4267L14.1825 23.0387V38.8801H8.454C8.13161 38.8801 7.81238 38.8078 7.51455 38.6672C7.21672 38.5266 6.94612 38.3206 6.71823 38.0609C6.49034 37.8012 6.30961 37.4929 6.18637 37.1536C6.06313 36.8144 5.9998 36.4507 6 36.0836V12.3224C6 8.86641 9.4635 6.89328 11.8905 8.9672L14.1825 10.9267L24 19.3112L33.8175 10.9232L36.1095 8.9672C38.535 6.89499 42 8.86641 42 12.3224Z" fill="#363333"/>
</g>
<defs>
<clipPath id="clip0_176_96">
<rect width="36" height="41" fill="white" transform="translate(6 3)"/>
</clipPath>
</defs>
</svg>
