<svg width="47" height="47" viewBox="0 0 47 47" fill="none" xmlns="http://www.w3.org/2000/svg">
<g clip-path="url(#clip0_176_87)">
<path d="M21.5413 27.4167H25.458V21.5417H31.333V17.625H25.458V11.75H21.5413V17.625H15.6663V21.5417H21.5413V27.4167ZM23.4997 43.0833C18.2448 38.6118 14.3203 34.4582 11.7262 30.6225C9.13073 26.7881 7.83301 23.2389 7.83301 19.975C7.83301 15.0792 9.40816 11.1788 12.5585 8.27398C15.7075 5.36912 19.3545 3.91669 23.4997 3.91669C27.6448 3.91669 31.2919 5.36912 34.4409 8.27398C37.5912 11.1788 39.1663 15.0792 39.1663 19.975C39.1663 23.2389 37.8693 26.7881 35.2751 30.6225C32.6797 34.4582 28.7545 38.6118 23.4997 43.0833Z" fill="#363333"/>
</g>
<defs>
<clipPath id="clip0_176_87">
<rect width="47" height="47" fill="white"/>
</clipPath>
</defs>
</svg>
